<svg xmlns="http://www.w3.org/2000/svg" width="1600" height="900" viewBox="0 0 1600 900" role="img" aria-label="Ignition style background pattern">
<rect width="1600" height="900" fill="#162B3C"/>
<g opacity="0.16" fill="none" stroke="#FFFFFF" stroke-width="2">
  <path d="M85 100 L145 65 L205 100 L205 170 L145 205 L85 170 Z"/>
  <path d="M-25 290 L35 255 L95 290 L95 360 L35 395 L-25 360 Z"/>
  <path d="M1220 98 L1280 63 L1340 98 L1340 168 L1280 203 L1220 168 Z"/>
</g>
<g fill="#FFFFFF" opacity="0.12">
  <circle cx="1100" cy="170" r="1.7"/><circle cx="1126" cy="170" r="1.8499999999999999"/><circle cx="1152" cy="170" r="2.0"/><circle cx="1178" cy="170" r="2.15"/><circle cx="1204" cy="170" r="2.3"/><circle cx="1230" cy="170" r="1.7"/><circle cx="1256" cy="170" r="1.8499999999999999"/><circle cx="1282" cy="170" r="2.0"/><circle cx="1308" cy="170" r="2.15"/><circle cx="1334" cy="170" r="2.3"/><circle cx="1360" cy="170" r="1.7"/><circle cx="1386" cy="170" r="1.8499999999999999"/><circle cx="1412" cy="170" r="2.0"/><circle cx="1438" cy="170" r="2.15"/><circle cx="1464" cy="170" r="2.3"/><circle cx="1490" cy="170" r="1.7"/><circle cx="1516" cy="170" r="1.8499999999999999"/><circle cx="1542" cy="170" r="2.0"/><circle cx="1100" cy="194" r="2.15"/><circle cx="1126" cy="194" r="2.3"/><circle cx="1152" cy="194" r="1.7"/><circle cx="1178" cy="194" r="1.8499999999999999"/><circle cx="1204" cy="194" r="2.0"/><circle cx="1230" cy="194" r="2.15"/><circle cx="1256" cy="194" r="2.3"/><circle cx="1282" cy="194" r="1.7"/><circle cx="1308" cy="194" r="1.8499999999999999"/><circle cx="1334" cy="194" r="2.0"/><circle cx="1360" cy="194" r="2.15"/><circle cx="1386" cy="194" r="2.3"/><circle cx="1412" cy="194" r="1.7"/><circle cx="1438" cy="194" r="1.8499999999999999"/><circle cx="1464" cy="194" r="2.0"/><circle cx="1490" cy="194" r="2.15"/><circle cx="1516" cy="194" r="2.3"/><circle cx="1542" cy="194" r="1.7"/><circle cx="1100" cy="218" r="1.8499999999999999"/><circle cx="1126" cy="218" r="2.0"/><circle cx="1152" cy="218" r="2.15"/><circle cx="1178" cy="218" r="2.3"/><circle cx="1204" cy="218" r="1.7"/><circle cx="1230" cy="218" r="1.8499999999999999"/><circle cx="1256" cy="218" r="2.0"/><circle cx="1282" cy="218" r="2.15"/><circle cx="1308" cy="218" r="2.3"/><circle cx="1334" cy="218" r="1.7"/><circle cx="1360" cy="218" r="1.8499999999999999"/><circle cx="1386" cy="218" r="2.0"/><circle cx="1412" cy="218" r="2.15"/><circle cx="1438" cy="218" r="2.3"/><circle cx="1464" cy="218" r="1.7"/><circle cx="1490" cy="218" r="1.8499999999999999"/><circle cx="1516" cy="218" r="2.0"/><circle cx="1542" cy="218" r="2.15"/><circle cx="1100" cy="242" r="2.3"/><circle cx="1126" cy="242" r="1.7"/><circle cx="1152" cy="242" r="1.8499999999999999"/><circle cx="1178" cy="242" r="2.0"/><circle cx="1204" cy="242" r="2.15"/><circle cx="1230" cy="242" r="2.3"/><circle cx="1256" cy="242" r="1.7"/><circle cx="1282" cy="242" r="1.8499999999999999"/><circle cx="1308" cy="242" r="2.0"/><circle cx="1334" cy="242" r="2.15"/><circle cx="1360" cy="242" r="2.3"/><circle cx="1386" cy="242" r="1.7"/><circle cx="1412" cy="242" r="1.8499999999999999"/><circle cx="1438" cy="242" r="2.0"/><circle cx="1464" cy="242" r="2.15"/><circle cx="1490" cy="242" r="2.3"/><circle cx="1516" cy="242" r="1.7"/><circle cx="1542" cy="242" r="1.8499999999999999"/><circle cx="1100" cy="266" r="2.0"/><circle cx="1126" cy="266" r="2.15"/><circle cx="1152" cy="266" r="2.3"/><circle cx="1178" cy="266" r="1.7"/><circle cx="1204" cy="266" r="1.8499999999999999"/><circle cx="1230" cy="266" r="2.0"/><circle cx="1256" cy="266" r="2.15"/><circle cx="1282" cy="266" r="2.3"/><circle cx="1308" cy="266" r="1.7"/><circle cx="1334" cy="266" r="1.8499999999999999"/><circle cx="1360" cy="266" r="2.0"/><circle cx="1386" cy="266" r="2.15"/><circle cx="1412" cy="266" r="2.3"/><circle cx="1438" cy="266" r="1.7"/><circle cx="1464" cy="266" r="1.8499999999999999"/><circle cx="1490" cy="266" r="2.0"/><circle cx="1516" cy="266" r="2.15"/><circle cx="1542" cy="266" r="2.3"/><circle cx="1100" cy="290" r="1.7"/><circle cx="1126" cy="290" r="1.8499999999999999"/><circle cx="1152" cy="290" r="2.0"/><circle cx="1178" cy="290" r="2.15"/><circle cx="1204" cy="290" r="2.3"/><circle cx="1230" cy="290" r="1.7"/><circle cx="1256" cy="290" r="1.8499999999999999"/><circle cx="1282" cy="290" r="2.0"/><circle cx="1308" cy="290" r="2.15"/><circle cx="1334" cy="290" r="2.3"/><circle cx="1360" cy="290" r="1.7"/><circle cx="1386" cy="290" r="1.8499999999999999"/><circle cx="1412" cy="290" r="2.0"/><circle cx="1438" cy="290" r="2.15"/><circle cx="1464" cy="290" r="2.3"/><circle cx="1490" cy="290" r="1.7"/><circle cx="1516" cy="290" r="1.8499999999999999"/><circle cx="1542" cy="290" r="2.0"/><circle cx="1100" cy="314" r="2.15"/><circle cx="1126" cy="314" r="2.3"/><circle cx="1152" cy="314" r="1.7"/><circle cx="1178" cy="314" r="1.8499999999999999"/><circle cx="1204" cy="314" r="2.0"/><circle cx="1230" cy="314" r="2.15"/><circle cx="1256" cy="314" r="2.3"/><circle cx="1282" cy="314" r="1.7"/><circle cx="1308" cy="314" r="1.8499999999999999"/><circle cx="1334" cy="314" r="2.0"/><circle cx="1360" cy="314" r="2.15"/><circle cx="1386" cy="314" r="2.3"/><circle cx="1412" cy="314" r="1.7"/><circle cx="1438" cy="314" r="1.8499999999999999"/><circle cx="1464" cy="314" r="2.0"/><circle cx="1490" cy="314" r="2.15"/><circle cx="1516" cy="314" r="2.3"/><circle cx="1542" cy="314" r="1.7"/><circle cx="1100" cy="338" r="1.8499999999999999"/><circle cx="1126" cy="338" r="2.0"/><circle cx="1152" cy="338" r="2.15"/><circle cx="1178" cy="338" r="2.3"/><circle cx="1204" cy="338" r="1.7"/><circle cx="1230" cy="338" r="1.8499999999999999"/><circle cx="1256" cy="338" r="2.0"/><circle cx="1282" cy="338" r="2.15"/><circle cx="1308" cy="338" r="2.3"/><circle cx="1334" cy="338" r="1.7"/><circle cx="1360" cy="338" r="1.8499999999999999"/><circle cx="1386" cy="338" r="2.0"/><circle cx="1412" cy="338" r="2.15"/><circle cx="1438" cy="338" r="2.3"/><circle cx="1464" cy="338" r="1.7"/><circle cx="1490" cy="338" r="1.8499999999999999"/><circle cx="1516" cy="338" r="2.0"/><circle cx="1542" cy="338" r="2.15"/><circle cx="1100" cy="362" r="2.3"/><circle cx="1126" cy="362" r="1.7"/><circle cx="1152" cy="362" r="1.8499999999999999"/><circle cx="1178" cy="362" r="2.0"/><circle cx="1204" cy="362" r="2.15"/><circle cx="1230" cy="362" r="2.3"/><circle cx="1256" cy="362" r="1.7"/><circle cx="1282" cy="362" r="1.8499999999999999"/><circle cx="1308" cy="362" r="2.0"/><circle cx="1334" cy="362" r="2.15"/><circle cx="1360" cy="362" r="2.3"/><circle cx="1386" cy="362" r="1.7"/><circle cx="1412" cy="362" r="1.8499999999999999"/><circle cx="1438" cy="362" r="2.0"/><circle cx="1464" cy="362" r="2.15"/><circle cx="1490" cy="362" r="2.3"/><circle cx="1516" cy="362" r="1.7"/><circle cx="1542" cy="362" r="1.8499999999999999"/><circle cx="1100" cy="386" r="2.0"/><circle cx="1126" cy="386" r="2.15"/><circle cx="1152" cy="386" r="2.3"/><circle cx="1178" cy="386" r="1.7"/><circle cx="1204" cy="386" r="1.8499999999999999"/><circle cx="1230" cy="386" r="2.0"/><circle cx="1256" cy="386" r="2.15"/><circle cx="1282" cy="386" r="2.3"/><circle cx="1308" cy="386" r="1.7"/><circle cx="1334" cy="386" r="1.8499999999999999"/><circle cx="1360" cy="386" r="2.0"/><circle cx="1386" cy="386" r="2.15"/><circle cx="1412" cy="386" r="2.3"/><circle cx="1438" cy="386" r="1.7"/><circle cx="1464" cy="386" r="1.8499999999999999"/><circle cx="1490" cy="386" r="2.0"/><circle cx="1516" cy="386" r="2.15"/><circle cx="1542" cy="386" r="2.3"/><circle cx="1100" cy="410" r="1.7"/><circle cx="1126" cy="410" r="1.8499999999999999"/><circle cx="1152" cy="410" r="2.0"/><circle cx="1178" cy="410" r="2.15"/><circle cx="1204" cy="410" r="2.3"/><circle cx="1230" cy="410" r="1.7"/><circle cx="1256" cy="410" r="1.8499999999999999"/><circle cx="1282" cy="410" r="2.0"/><circle cx="1308" cy="410" r="2.15"/><circle cx="1334" cy="410" r="2.3"/><circle cx="1360" cy="410" r="1.7"/><circle cx="1386" cy="410" r="1.8499999999999999"/><circle cx="1412" cy="410" r="2.0"/><circle cx="1438" cy="410" r="2.15"/><circle cx="1464" cy="410" r="2.3"/><circle cx="1490" cy="410" r="1.7"/><circle cx="1516" cy="410" r="1.8499999999999999"/><circle cx="1542" cy="410" r="2.0"/><circle cx="1100" cy="434" r="2.15"/><circle cx="1126" cy="434" r="2.3"/><circle cx="1152" cy="434" r="1.7"/><circle cx="1178" cy="434" r="1.8499999999999999"/><circle cx="1204" cy="434" r="2.0"/><circle cx="1230" cy="434" r="2.15"/><circle cx="1256" cy="434" r="2.3"/><circle cx="1282" cy="434" r="1.7"/><circle cx="1308" cy="434" r="1.8499999999999999"/><circle cx="1334" cy="434" r="2.0"/><circle cx="1360" cy="434" r="2.15"/><circle cx="1386" cy="434" r="2.3"/><circle cx="1412" cy="434" r="1.7"/><circle cx="1438" cy="434" r="1.8499999999999999"/><circle cx="1464" cy="434" r="2.0"/><circle cx="1490" cy="434" r="2.15"/><circle cx="1516" cy="434" r="2.3"/><circle cx="1542" cy="434" r="1.7"/><circle cx="1100" cy="458" r="1.8499999999999999"/><circle cx="1126" cy="458" r="2.0"/><circle cx="1152" cy="458" r="2.15"/><circle cx="1178" cy="458" r="2.3"/><circle cx="1204" cy="458" r="1.7"/><circle cx="1230" cy="458" r="1.8499999999999999"/><circle cx="1256" cy="458" r="2.0"/><circle cx="1282" cy="458" r="2.15"/><circle cx="1308" cy="458" r="2.3"/><circle cx="1334" cy="458" r="1.7"/><circle cx="1360" cy="458" r="1.8499999999999999"/><circle cx="1386" cy="458" r="2.0"/><circle cx="1412" cy="458" r="2.15"/><circle cx="1438" cy="458" r="2.3"/><circle cx="1464" cy="458" r="1.7"/><circle cx="1490" cy="458" r="1.8499999999999999"/><circle cx="1516" cy="458" r="2.0"/><circle cx="1542" cy="458" r="2.15"/><circle cx="1100" cy="482" r="2.3"/><circle cx="1126" cy="482" r="1.7"/><circle cx="1152" cy="482" r="1.8499999999999999"/><circle cx="1178" cy="482" r="2.0"/><circle cx="1204" cy="482" r="2.15"/><circle cx="1230" cy="482" r="2.3"/><circle cx="1256" cy="482" r="1.7"/><circle cx="1282" cy="482" r="1.8499999999999999"/><circle cx="1308" cy="482" r="2.0"/><circle cx="1334" cy="482" r="2.15"/><circle cx="1360" cy="482" r="2.3"/><circle cx="1386" cy="482" r="1.7"/><circle cx="1412" cy="482" r="1.8499999999999999"/><circle cx="1438" cy="482" r="2.0"/><circle cx="1464" cy="482" r="2.15"/><circle cx="1490" cy="482" r="2.3"/><circle cx="1516" cy="482" r="1.7"/><circle cx="1542" cy="482" r="1.8499999999999999"/><circle cx="1100" cy="506" r="2.0"/><circle cx="1126" cy="506" r="2.15"/><circle cx="1152" cy="506" r="2.3"/><circle cx="1178" cy="506" r="1.7"/><circle cx="1204" cy="506" r="1.8499999999999999"/><circle cx="1230" cy="506" r="2.0"/><circle cx="1256" cy="506" r="2.15"/><circle cx="1282" cy="506" r="2.3"/>
</g>
<line x1="0" y1="130" x2="1600" y2="130" stroke="#45AC34" stroke-width="3" opacity="0.75"/>
</svg>