<svg xmlns="http://www.w3.org/2000/svg" width="1024" height="1024" viewBox="0 0 1024 1024" role="img" aria-label="IGSIGN app icon">

<defs>
  <style>
    .navy { fill: #162B3C; }
    .white { fill: #FFFFFF; }
    .green { fill: #45AC34; }
    .grey { fill: #7B787F; }
    .stroke-white { fill: none; stroke: #FFFFFF; stroke-width: 18; stroke-linecap: round; stroke-linejoin: round; }
    .stroke-green { fill: none; stroke: #45AC34; stroke-width: 18; stroke-linecap: round; stroke-linejoin: round; }
    .word { font-family: Avenir, Arial, sans-serif; font-weight: 800; letter-spacing: 12px; }
    .tag { font-family: Avenir, Arial, sans-serif; font-weight: 500; letter-spacing: 9px; }
  </style>
  <filter id="softShadow" x="-20%" y="-20%" width="140%" height="140%">
    <feDropShadow dx="0" dy="8" stdDeviation="10" flood-color="#000000" flood-opacity="0.22"/>
  </filter>
</defs>

<defs>
  <linearGradient id="g" x1="0" x2="1" y1="0" y2="1">
    <stop offset="0" stop-color="#203A50"/>
    <stop offset="1" stop-color="#0E2130"/>
  </linearGradient>
  <filter id="tileShadow"><feDropShadow dx="0" dy="24" stdDeviation="30" flood-opacity="0.32"/></filter>
</defs>
<rect width="1024" height="1024" rx="210" fill="url(#g)"/>
<g opacity="0.08">
  <circle cx="820" cy="210" r="2" fill="#FFFFFF"/><circle cx="850" cy="230" r="2" fill="#FFFFFF"/><circle cx="880" cy="250" r="2" fill="#FFFFFF"/>
</g>
<g transform="translate(166,142) scale(2.13)" filter="url(#tileShadow)">

<g id="igsign-icon-mark">
  <path class="stroke-white" d="M160 48 L284 120 L284 264 L160 336 L36 264 L36 120 Z"/>
  <circle class="green" cx="86" cy="132" r="13"/>
  <rect class="white" x="70" y="158" width="34" height="112" rx="6"/>
  <path class="white" d="M135 162 C154 143 195 142 224 161 L198 188 C179 177 157 178 143 192 C126 210 130 240 150 255 C166 267 190 266 204 254 L204 230 L166 230 L182 204 L238 204 L238 267 C218 289 186 301 153 294 C111 285 82 248 88 207 C91 188 106 174 135 162Z"/>
  <path class="stroke-green" d="M226 265 L258 235"/>
  <path class="stroke-green" d="M226 265 L214 250"/>
</g>

</g>
</svg>